<svg xmlns="http://www.w3.org/2000/svg" viewBox="0 0 512 512" id="car-loan">
  <path fill="#eb304a" d="M504.5,405.47,504.45,417a30,30,0,0,1-30,29.9H48.74a30,30,0,0,1-26.39-15.69L11.14,410.61a30.12,30.12,0,0,1-3.62-15.4c0-.43,0-.87.07-1.31L11,351.26l3.24-40.75a30.12,30.12,0,0,1,.62-4.12,29.72,29.72,0,0,1,2.56-7.16l31.87-62.52A30.07,30.07,0,0,1,76,220.32H273.67a30,30,0,0,1,19.76,7.42l88.84,77.67,4.16,1h0l86.83,20.45A30,30,0,0,1,496,351.18a2.38,2.38,0,0,1,.05.26l6.84,43.77Z"></path>
  <path fill="#e4222e" d="M502.9,395.21l-6.84-43.77a2.38,2.38,0,0,0-.05-.26,30,30,0,0,0-22.74-24.34l-86.83-20.45h0l-4.16-1-88.84-77.67a30,30,0,0,0-19.76-7.42h-30a30,30,0,0,1,19.76,7.42l88.84,77.67,4.16,1h0l86.83,20.45A30,30,0,0,1,466,351.18a2.38,2.38,0,0,1,.05.26l6.84,43.77,1.6,10.26L474.45,417a30,30,0,0,1-30,29.9h30a30,30,0,0,0,30-29.9l.05-11.55Z"></path>
  <path fill="#52bbe9" d="M386.43,306.39H14.82a29.72,29.72,0,0,1,2.56-7.16l31.87-62.52A30.07,30.07,0,0,1,76,220.32H273.67a30,30,0,0,1,19.76,7.42l88.84,77.67Z"></path>
  <path fill="#1cabe1" d="M382.27,305.41l-88.84-77.67a30,30,0,0,0-19.76-7.42h-30a30,30,0,0,1,19.76,7.42l88.84,77.67,4.16,1h30Z"></path>
  <path fill="#787681" d="M395.45,504.5a57.58,57.58,0,1,1,40.7-16.86A57.2,57.2,0,0,1,395.45,504.5Z"></path>
  <path fill="#57565c" d="M436.15,406.21a57.19,57.19,0,0,0-40.7-16.86,58.61,58.61,0,0,0-9.11.72,57.58,57.58,0,0,1,0,113.71,58.61,58.61,0,0,0,9.11.72,57.57,57.57,0,0,0,40.7-98.29Z"></path>
  <path fill="#e1e1e3" d="M395.45,469.45a22.5,22.5,0,1,1,15.93-6.59A22.38,22.38,0,0,1,395.45,469.45Z"></path>
  <path fill="#c8c5cc" d="M411.38,431A22.47,22.47,0,0,0,388,425.7a22.49,22.49,0,0,1,0,42.45A22.52,22.52,0,0,0,411.38,431Z"></path>
  <path fill="#787681" d="M125.11,504.5a57.56,57.56,0,1,1,40.71-16.86A57.23,57.23,0,0,1,125.11,504.5Z"></path>
  <path fill="#f8be32" d="M502.9,395.21H484a15,15,0,0,1-15-15v-14a15,15,0,0,1,15-15h11.79l.3.26Z"></path>
  <path fill="#fed030" d="M496.06,351.44l-.3-.26H484a14.8,14.8,0,0,0-2.91.29l6.84,43.74h15Z"></path>
  <path fill="#f8be32" d="M37.33,366.2v14a15,15,0,0,1-15,15H7.52c0-.43,0-.87.07-1.31L11,351.26l11.35-.08A15,15,0,0,1,37.33,366.2Z"></path>
  <path fill="#e1e1e3" d="M125.11,469.45A22.52,22.52,0,1,1,141,462.86,22.42,22.42,0,0,1,125.11,469.45Z"></path>
  <path fill="#57565c" d="M166.15,406.21a57.19,57.19,0,0,0-40.7-16.86,58.61,58.61,0,0,0-9.11.72,57.58,57.58,0,0,1,0,113.71,58.61,58.61,0,0,0,9.11.72,57.57,57.57,0,0,0,40.7-98.29Z"></path>
  <path fill="#c8c5cc" d="M141.38,431A22.47,22.47,0,0,0,118,425.7a22.49,22.49,0,0,1,0,42.45A22.52,22.52,0,0,0,141.38,431Z"></path>
  <path fill="#fed947" d="M183.28,234.75a75.25,75.25,0,1,1,53.2-22A74.76,74.76,0,0,1,183.28,234.75Z"></path>
  <path fill="#fecc30" d="M236.48,106.29a74.74,74.74,0,0,0-53.2-22,76.12,76.12,0,0,0-12.5,1,75.25,75.25,0,0,1,0,148.4,76.12,76.12,0,0,0,12.5,1.05,75.25,75.25,0,0,0,53.2-128.46Z"></path>
  <path fill="#8b8893" d="M504.5,512H7.5a7.5,7.5,0,0,1,0-15h497a7.5,7.5,0,0,1,0,15Z"></path>
  <path fill="#3c3b41" d="M298.6,156.76c0,.09,0,.17,0,.26s0,.31,0,.46,0,.2,0,.3l.09.48c0,.09.05.17.07.26s.09.33.14.49l.09.25c.06.15.13.31.2.46a1.92,1.92,0,0,0,.12.25l.23.43.15.24a3.39,3.39,0,0,0,.27.39c.06.08.11.16.18.24s.2.24.31.36.12.15.19.22l.4.37a1.59,1.59,0,0,1,.13.13l.06,0h0L330,186.55a7.5,7.5,0,0,0,9.65-11.48l-13-11H413.5a23.53,23.53,0,0,1,23.5,23.5v73.7a7.5,7.5,0,0,0,15,0v-73.7a38.54,38.54,0,0,0-38.5-38.5H325.43l14.26-13A7.5,7.5,0,0,0,329.58,125L301,151.07a.94.94,0,0,0-.1.1,3.51,3.51,0,0,0-.33.34l-.21.22-.3.38c-.05.07-.11.14-.16.22a4.66,4.66,0,0,0-.3.47l-.1.17a7.13,7.13,0,0,0-.8,2.18l0,.17c0,.19-.06.39-.08.58s0,.21,0,.32,0,.26,0,.39,0,0,0,.08A.16.16,0,0,0,298.6,156.76ZM175,158.82h-18.5a7.49,7.49,0,0,0-6,12.84l41.59,40.41a7.5,7.5,0,1,0,10.46-10.76l-28.3-27.49H175a30.72,30.72,0,0,0,29.82-23.62H211a7.5,7.5,0,0,0,0-15h-6.33a30.6,30.6,0,0,0-3.31-7.87H211a7.5,7.5,0,0,0,0-15H156.1a7.5,7.5,0,0,0,0,15H175a15.62,15.62,0,0,1,13.53,7.87H156.1a7.5,7.5,0,1,0,0,15H189A15.65,15.65,0,0,1,175,158.82Zm220.43,258a30,30,0,1,0,21.24,8.79A29.82,29.82,0,0,0,395.44,416.83Zm10.63,40.65a15,15,0,1,1,4.4-10.62A14.92,14.92,0,0,1,406.07,457.48Zm98.43,39.45H437q2.31-1.92,4.46-4.06a64.58,64.58,0,0,0,18.62-38.52h14.34A37.61,37.61,0,0,0,512,417l.05-11.55a8,8,0,0,0-.09-1.19l-8.43-53.94a6,6,0,0,0-.11-.62A37.4,37.4,0,0,0,475,319.47L388.16,299l-.14,0-.1,0-2.12-.5L298.36,222a37.5,37.5,0,0,0-24.69-9.27H246.53a82.75,82.75,0,1,0-126.51,0H76a37.44,37.44,0,0,0-33.45,20.48L10.69,295.76a37.4,37.4,0,0,0-4,14.08L3.51,350.38l0,.28L.11,393.24a.31.31,0,0,1,0,.09v.11c0,.51-.07,1-.08,1.43v.22a37.68,37.68,0,0,0,4.53,19l11.2,20.62a37.51,37.51,0,0,0,33,19.61H60.48A64.58,64.58,0,0,0,79.1,492.87q2.15,2.14,4.46,4.06H7.5a7.5,7.5,0,0,0,0,15h497a7.5,7.5,0,0,0,0-15ZM494.13,387.64H484a7.54,7.54,0,0,1-7.52-7.52v-14a7.53,7.53,0,0,1,7.52-7.52h5.63ZM273.67,227.75a22.52,22.52,0,0,1,14.82,5.57l74.92,65.5H188.7l-5.87-56.66.44,0A82.1,82.1,0,0,0,230,227.75ZM115.53,159.43a67.76,67.76,0,1,1,19.84,47.9A67.26,67.26,0,0,1,115.53,159.43ZM55.92,240.05A22.48,22.48,0,0,1,76,227.75h60.57a81.9,81.9,0,0,0,31,12.94l6,58.13H26ZM15.6,387.64l2.3-29,4.4,0a7.52,7.52,0,0,1,7.52,7.52v14a7.53,7.53,0,0,1-7.52,7.52Zm33.14,51.71a22.5,22.5,0,0,1-19.8-11.77L17.73,407a22.71,22.71,0,0,1-1.79-4.33H22.3a22.55,22.55,0,0,0,22.52-22.52v-14a22.55,22.55,0,0,0-22.56-22.52l-3.17,0,2.36-29.81H385.56l86,20.25a22.47,22.47,0,0,1,13.65,9.54H484a22.54,22.54,0,0,0-22.52,22.52v14A22.55,22.55,0,0,0,484,402.64h12.5L497,406l0,11a22.59,22.59,0,0,1-22.54,22.43H460.07a65.06,65.06,0,0,0-129.26,0H189.74a65.06,65.06,0,0,0-129.26,0Zm76.37,57.58a50.07,50.07,0,1,1,50.07-50.13v.1a50.07,50.07,0,0,1-50.07,50Zm41.55,0q2.31-1.92,4.46-4.06a64.58,64.58,0,0,0,18.62-38.52H330.81a64.58,64.58,0,0,0,18.62,38.52q2.15,2.14,4.46,4.06Zm228.78,0a50.09,50.09,0,0,1-50.07-50s0-.05,0-.07,0,0,0-.06a50.07,50.07,0,1,1,50.07,50.14ZM142.13,343.68h22a7.5,7.5,0,1,0,0-15h-22a7.5,7.5,0,0,0,0,15Zm75.09,0h22a7.5,7.5,0,1,0,0-15h-22a7.5,7.5,0,1,0,0,15Zm-92.11,73.15a30,30,0,1,0,21.23,8.79A29.82,29.82,0,0,0,125.11,416.83Zm10.63,40.65a15,15,0,1,1,4.4-10.62A14.94,14.94,0,0,1,135.74,457.48Z"></path>
</svg>
