<svg xmlns="http://www.w3.org/2000/svg" viewBox="0 0 512 512" id="gold-loan">
  <path fill="#b28b6a" d="M439,319.77c0,102.72-90.22,186-183,186s-183-83.28-183-186c0-62,53.11-146.9,98.54-180.69a31.43,31.43,0,0,0,7.28-43L140.27,39.56A18,18,0,0,1,154.4,11.42l1.53-.06a18,18,0,0,1,10.47,2.83l24.48,15.69a29.69,29.69,0,0,0,37-4l11.49-11.49a23.51,23.51,0,0,1,33.23,0L284.27,26A29.68,29.68,0,0,0,321,30.2l26.73-16.77a18,18,0,0,1,9.56-2.75c.39,0,.78,0,1.18,0a18,18,0,0,1,13.72,28.12L333.17,96.09a31.48,31.48,0,0,0,7.28,43C385.88,172.87,439,257.77,439,319.77Z"></path>
  <path fill="#a17855" d="M242.61 14.38L254.27 26a29.67 29.67 0 0 0 36 4.61 29.44 29.44 0 0 1-6-4.61L272.61 14.38A23.5 23.5 0 0 0 241 12.92C241.55 13.38 242.1 13.86 242.61 14.38zM340.45 139.08a31.43 31.43 0 0 1-7.28-43l39.05-57.25A18 18 0 0 0 358.5 10.72c-.4 0-.79 0-1.18 0a18 18 0 0 0-9.56 2.75l-6.37 4a17.93 17.93 0 0 1 .83 21.41L303.17 96.09a31.48 31.48 0 0 0 7.28 43C355.88 172.87 409 257.77 409 319.77 409 416.94 328.27 496.7 241 505c5 .47 10 .73 15 .73 92.78 0 183-83.28 183-186C439 257.77 385.88 172.87 340.45 139.08zM160.88 29.88a29.7 29.7 0 0 0 31.05.6c-.35-.2-.71-.38-1.05-.6L166.4 14.19a18 18 0 0 0-10.47-2.83l-1.53.06a17.73 17.73 0 0 0-12.79 6.11z"></path>
  <path fill="#a17855" d="M242.62 14.38L254.27 26a29.67 29.67 0 0 0 36 4.61 29.44 29.44 0 0 1-6-4.61L272.62 14.38A23.5 23.5 0 0 0 241 12.92C241.55 13.38 242.1 13.86 242.62 14.38zM160.89 29.88a29.71 29.71 0 0 0 31 .6c-.35-.2-.7-.39-1-.6L166.4 14.19a17.92 17.92 0 0 0-10.46-2.83l-1.53.06a17.76 17.76 0 0 0-12.8 6.1z"></path>
  <path fill="#fed947" d="M256,346.88a75.25,75.25,0,1,1,53.21-22A74.78,74.78,0,0,1,256,346.88Z"></path>
  <path fill="#fecc30" d="M309.21 218.43a75.2 75.2 0 0 0-65.71-21 75.24 75.24 0 0 1 0 148.39 76.22 76.22 0 0 0 12.5 1.05 75.24 75.24 0 0 0 53.21-128.45zM131.75 504.5H7.5l12.22-46.79A15 15 0 0 1 34.24 446.5H105a15 15 0 0 1 14.52 11.21z"></path>
  <path fill="#f8be32" d="M119.53 457.71A15 15 0 0 0 105 446.5H90a15 15 0 0 1 14.52 11.21l12.22 46.79h15zM256 504.5H131.75L144 457.71a15 15 0 0 1 14.52-11.21h70.77a15 15 0 0 1 14.52 11.21z"></path>
  <path fill="#d7a637" d="M243.78,457.71a15,15,0,0,0-14.52-11.21h-15a15,15,0,0,1,14.52,11.21L241,504.5h15Z"></path>
  <path fill="#fecc30" d="M380.25,504.5H256l12.22-46.79a15,15,0,0,1,14.52-11.21h70.77A15,15,0,0,1,368,457.71Z"></path>
  <path fill="#f8be32" d="M368 457.71a15 15 0 0 0-14.52-11.21h-15A15 15 0 0 1 353 457.71l12.22 46.79h15zM504.5 504.5H380.25l12.22-46.79A15 15 0 0 1 407 446.5h70.77a15 15 0 0 1 14.52 11.21z"></path>
  <path fill="#d7a637" d="M492.28,457.71a15,15,0,0,0-14.52-11.21h-15a15,15,0,0,1,14.52,11.21L489.5,504.5h15Z"></path>
  <path fill="#f8be32" d="M193.88,446.5H69.62l12.23-46.79A15,15,0,0,1,96.36,388.5h70.78a15,15,0,0,1,14.51,11.21Z"></path>
  <path fill="#d7a637" d="M181.65,399.71a15,15,0,0,0-14.51-11.21h-15a15,15,0,0,1,14.51,11.21l12.22,46.79h15Z"></path>
  <path fill="#fecc30" d="M318.12,446.5H193.88l12.22-46.79a15,15,0,0,1,14.51-11.21h70.78a15,15,0,0,1,14.51,11.21Z"></path>
  <path fill="#f8be32" d="M305.9 399.71a15 15 0 0 0-14.51-11.21h-15a15 15 0 0 1 14.51 11.21l12.22 46.79h15zM442.38 446.5H318.12l12.23-46.79a15 15 0 0 1 14.51-11.21h70.78a15 15 0 0 1 14.51 11.21z"></path>
  <path fill="#eab234" d="M430.15,399.71a15,15,0,0,0-14.51-11.21h-15a15,15,0,0,1,14.51,11.21l12.22,46.79h15Z"></path>
  <path fill="#3c3b41" d="M511.75,502.53l-12.22-46.79a22.51,22.51,0,0,0-21.77-16.81h-29.6L437.4,397.74a22.37,22.37,0,0,0-5.73-10.07c9.83-20.51,14.83-43.34,14.83-68,0-63.62-53.63-151-101.57-186.71a24,24,0,0,1-9.24-14.5A75.49,75.49,0,0,1,353.07,115c21.36-1.71,43.61,5.66,52.79,13.77,3.43,3,3.77,5,3.79,5.48.08,1.84-2.61,5.76-10.48,10.75a7.5,7.5,0,1,0,8,12.67c12.1-7.68,17.8-15.56,17.43-24.08-.18-3.92-1.85-9.89-8.85-16.07-13.59-12-40.48-19.35-63.92-17.48l-1,.11.43-.37c10.27-8.43,31.64-26,55.18-21.66,9,1.65,17.91,6.56,25.68,14.18a7.5,7.5,0,0,0,10.51-10.71c-9.92-9.73-21.5-16-33.49-18.23-22.22-4.07-41.56,5.82-55,15.29L378.41,43A25.51,25.51,0,0,0,343.78,7L317.05,23.77a22.08,22.08,0,0,1-27.48-3.1L277.92,9a31,31,0,0,0-43.85,0L222.59,20.5a22.33,22.33,0,0,1-27.66,3L170.44,7.8a25.43,25.43,0,0,0-14.82-4l-1.53.06A25.21,25.21,0,0,0,132.35,17.9a25.21,25.21,0,0,0,1.72,25.82l38.55,56.53A23.92,23.92,0,0,1,167.07,133C119.12,168.66,65.5,256.08,65.5,319.7c0,24.62,5,47.46,14.82,68a22.47,22.47,0,0,0-5.73,10.07L63.83,438.93H34.23a22.51,22.51,0,0,0-21.77,16.81L.24,502.53a7.5,7.5,0,0,0,7.26,9.4h497a7.5,7.5,0,0,0,7.25-9.4Zm-79.09-63.6H327.83l9.77-37.4a7.5,7.5,0,0,1,7.26-5.6h70.77a7.5,7.5,0,0,1,7.26,5.6ZM146.47,35.27a10.52,10.52,0,0,1,8.24-16.43l1.53-.06a10.38,10.38,0,0,1,6.11,1.65l24.49,15.69a37.39,37.39,0,0,0,46.35-5l11.49-11.49a16,16,0,0,1,22.63,0L279,31.27a37,37,0,0,0,46,5.21l26.73-16.76A10.51,10.51,0,0,1,366,34.54L327,91.79a38.88,38.88,0,0,0-6.4,16.51,167.33,167.33,0,0,1-62.67,12.9,170.34,170.34,0,0,1-66.49-12.9A39,39,0,0,0,185,91.79ZM111.75,222.5C130.18,190.21,154.21,161.25,176,145a39,39,0,0,0,14.39-21,184.52,184.52,0,0,0,67.67,12.15,181.9,181.9,0,0,0,63.51-12.13A39,39,0,0,0,336,145c21.81,16.22,45.84,45.18,64.28,77.47,20.15,35.29,31.25,69.81,31.25,97.2,0,22.32-4.49,42.94-13.31,61.39a24.1,24.1,0,0,0-2.56-.16H344.86a22.5,22.5,0,0,0-21.77,16.81l-5,19-5-19a22.5,22.5,0,0,0-21.77-16.81H220.61a22.5,22.5,0,0,0-21.77,16.81l-5,19-5-19a22.5,22.5,0,0,0-21.77-16.81H96.36a23.93,23.93,0,0,0-2.56.16C85,362.65,80.5,342,80.5,319.7,80.5,292.31,91.59,257.79,111.75,222.5ZM308.41,438.93H203.58l9.77-37.4a7.5,7.5,0,0,1,7.26-5.6h70.77a7.5,7.5,0,0,1,7.26,5.6ZM89.1,401.53a7.5,7.5,0,0,1,7.26-5.6h70.77a7.5,7.5,0,0,1,7.26,5.6l9.77,37.4H79.33Zm-71.89,95.4L27,459.53a7.49,7.49,0,0,1,7.25-5.6H105a7.51,7.51,0,0,1,7.26,5.6l9.77,37.4Zm119.5-41.19-5,19-5-19c-.16-.61-.35-1.22-.56-1.81h11.05C137.06,454.52,136.88,455.13,136.71,455.74Zm4.75,41.19,9.77-37.4a7.49,7.49,0,0,1,7.25-5.6h70.78a7.51,7.51,0,0,1,7.26,5.6l9.77,37.4ZM261,455.74l-5,19-5-19c-.16-.61-.35-1.22-.56-1.81h11C261.31,454.52,261.13,455.13,261,455.74Zm4.75,41.19,9.77-37.4a7.49,7.49,0,0,1,7.25-5.6h70.78a7.51,7.51,0,0,1,7.26,5.6l9.77,37.4Zm119.5-41.19-5,19-5-19c-.16-.61-.35-1.22-.56-1.81h11C385.56,454.52,385.38,455.13,385.21,455.74ZM390,496.93l9.77-37.4a7.49,7.49,0,0,1,7.25-5.6h70.78a7.51,7.51,0,0,1,7.26,5.6l9.77,37.4ZM256,354.31a82.76,82.76,0,1,0-58.51-24.24A82.21,82.21,0,0,0,256,354.31ZM208.09,223.66a67.75,67.75,0,1,1-19.84,47.9A67.3,67.3,0,0,1,208.09,223.66ZM247.74,271h-18.5a7.49,7.49,0,0,0-6,12.83l41.6,40.41a7.5,7.5,0,1,0,10.45-10.75L247,286h.72a30.72,30.72,0,0,0,29.81-23.63h6.14a7.5,7.5,0,0,0,0-15h-6.32a30.63,30.63,0,0,0-3.32-7.87h9.64a7.5,7.5,0,0,0,0-15H228.82a7.5,7.5,0,0,0,0,15h18.92a15.65,15.65,0,0,1,13.53,7.87H228.82a7.5,7.5,0,0,0,0,15h32.86A15.65,15.65,0,0,1,247.74,271Z"></path>
</svg>
