<svg xmlns="http://www.w3.org/2000/svg" id="home-loan" enable-background="new 0 0 64 64" viewBox="0 0 64 64">
  <polygon fill="#ebebeb" points="62.4 53.7 41 53.7 41 37.2 51.7 30.6 62.4 37.2"></polygon>
  <path fill="#59a7c6" d="M51.3,29.8l-11.5,7.1c-0.3,0.2-0.4,0.4-0.4,0.8l0,0c0,0.7,0.8,1.1,1.3,0.8l10.9-6.7l10.9,6.7
				c0.6,0.4,1.3-0.1,1.3-0.8l0,0c0-0.3-0.2-0.6-0.4-0.8l-11.5-7.1C51.9,29.7,51.6,29.7,51.3,29.8z"></path>
  <circle cx="51.7" cy="46.1" r="5.1" fill="#fcd66f"></circle>
  <circle cx="51.7" cy="46.1" r="4.5" fill="#d89832"></circle>
  <path fill="#fcd66f" d="M51.7,50c-2.1,0-3.9-1.7-3.9-3.9s1.7-3.9,3.9-3.9c2.1,0,3.9,1.7,3.9,3.9S53.8,50,51.7,50z"></path>
  <g>
    <path fill="#d89832" d="M53,46.8c0,0.2,0,0.3-0.1,0.4c-0.1,0.1-0.1,0.2-0.3,0.3c-0.1,0.1-0.2,0.2-0.4,0.2S51.9,48,51.7,48
						l-0.1,0.6c0,0,0,0,0,0c0,0,0,0,0,0c0,0,0,0-0.1,0c0,0-0.1,0-0.1,0c-0.1,0-0.1,0-0.1,0c0,0-0.1,0-0.1,0c0,0,0,0,0,0
						c0,0,0,0,0-0.1l0.1-0.6c-0.1,0-0.2,0-0.2,0c-0.1,0-0.1,0-0.2-0.1c-0.1,0-0.1,0-0.2-0.1c0,0-0.1,0-0.1-0.1c0,0,0-0.1,0-0.1
						c0,0,0-0.1,0-0.2c0-0.1,0-0.1,0-0.2c0,0,0-0.1,0-0.1c0,0,0,0,0,0c0,0,0,0,0.1,0c0,0,0.1,0,0.1,0c0,0,0.1,0.1,0.2,0.1
						c0.1,0,0.2,0.1,0.3,0.1c0.1,0,0.2,0,0.4,0c0.2,0,0.4,0,0.5-0.1c0.1-0.1,0.2-0.2,0.2-0.3c0-0.1,0-0.2-0.1-0.2
						c0-0.1-0.1-0.1-0.2-0.2c-0.1,0-0.2-0.1-0.3-0.1c-0.1,0-0.2-0.1-0.3-0.1c-0.1,0-0.2-0.1-0.3-0.1c-0.1-0.1-0.2-0.1-0.3-0.2
						c-0.1-0.1-0.1-0.2-0.2-0.3c0-0.1-0.1-0.2-0.1-0.4c0-0.1,0-0.3,0.1-0.4c0-0.1,0.1-0.2,0.2-0.3c0.1-0.1,0.2-0.2,0.3-0.2
						c0.1-0.1,0.3-0.1,0.5-0.1l0.1-0.6c0,0,0,0,0,0c0,0,0,0,0,0c0,0,0,0,0.1,0c0,0,0.1,0,0.1,0c0.1,0,0.1,0,0.1,0c0,0,0.1,0,0.1,0
						c0,0,0,0,0,0c0,0,0,0,0,0.1l-0.1,0.5c0.1,0,0.1,0,0.2,0c0.1,0,0.1,0,0.2,0c0.1,0,0.1,0,0.1,0.1c0,0,0.1,0,0.1,0.1c0,0,0,0,0,0
						s0,0,0,0.1c0,0,0,0.1,0,0.1c0,0,0,0.1,0,0.1c0,0.1,0,0.1,0,0.1s0,0.1,0,0.1c0,0,0,0,0,0c0,0,0,0,0,0c0,0-0.1,0-0.1,0
						c0,0-0.1-0.1-0.2-0.1c-0.1,0-0.2-0.1-0.2-0.1c-0.1,0-0.2,0-0.3,0c-0.1,0-0.2,0-0.3,0c-0.1,0-0.1,0-0.2,0.1c0,0-0.1,0.1-0.1,0.1
						c0,0,0,0.1,0,0.2c0,0.1,0,0.2,0.1,0.2c0,0.1,0.1,0.1,0.2,0.2c0.1,0,0.2,0.1,0.3,0.1c0.1,0,0.2,0.1,0.3,0.1
						c0.1,0,0.2,0.1,0.3,0.1c0.1,0.1,0.2,0.1,0.3,0.2c0.1,0.1,0.1,0.2,0.2,0.3C52.9,46.5,53,46.7,53,46.8z"></path>
  </g>
  <rect width="24.6" height="1.9" x="39.4" y="52.9" fill="#59a7c6"></rect>
  <g>
    <polygon fill="#f4f4f4" points="41.8 52.8 2.9 52.8 2.9 22.8 22.4 10.8 41.8 22.8"></polygon>
    <path fill="#5dafd8" d="M21.6,9.4L0.8,22.2C0.3,22.5,0,23,0,23.6l0,0c0,1.3,1.4,2,2.5,1.4l19.9-12.2l19.9,12.2
				c1.1,0.7,2.5-0.1,2.5-1.4l0,0c0-0.6-0.3-1.1-0.8-1.4L23.1,9.4C22.6,9.1,22.1,9.1,21.6,9.4z"></path>
    <circle cx="22.4" cy="39" r="9.3" fill="#fcd66f" transform="rotate(-76.714 22.355 38.976)"></circle>
    <circle cx="22.4" cy="39" r="8.1" fill="#d89832" transform="rotate(-45.001 22.352 38.974)"></circle>
    <path fill="#fcd66f" d="M22.4,46c-3.9,0-7-3.1-7-7s3.1-7,7-7s7,3.1,7,7S26.2,46,22.4,46z"></path>
    <g>
      <path fill="#d89832" d="M24.6,40.3c0,0.3-0.1,0.6-0.2,0.8c-0.1,0.2-0.3,0.5-0.5,0.6c-0.2,0.2-0.4,0.3-0.7,0.4
						c-0.3,0.1-0.6,0.2-0.9,0.2l-0.1,1.1c0,0,0,0.1,0,0.1c0,0,0,0-0.1,0.1c0,0-0.1,0-0.1,0c-0.1,0-0.1,0-0.2,0c-0.1,0-0.2,0-0.3,0
						c-0.1,0-0.1,0-0.2,0c0,0-0.1,0-0.1-0.1c0,0,0-0.1,0-0.1l0.1-1.1c-0.2,0-0.3,0-0.4-0.1c-0.1,0-0.3-0.1-0.4-0.1
						c-0.1,0-0.2-0.1-0.3-0.1c-0.1,0-0.1-0.1-0.2-0.1c0,0-0.1-0.1-0.1-0.2c0-0.1,0-0.2,0-0.4c0-0.1,0-0.2,0-0.3c0-0.1,0-0.1,0-0.2
						c0,0,0-0.1,0.1-0.1c0,0,0.1,0,0.1,0c0,0,0.1,0,0.2,0.1c0.1,0.1,0.2,0.1,0.3,0.2c0.1,0.1,0.3,0.1,0.5,0.2s0.4,0.1,0.7,0.1
						c0.4,0,0.7-0.1,0.9-0.2c0.2-0.2,0.3-0.4,0.3-0.6c0-0.2,0-0.3-0.1-0.4c-0.1-0.1-0.2-0.2-0.3-0.3c-0.1-0.1-0.3-0.2-0.5-0.2
						c-0.2-0.1-0.4-0.1-0.6-0.2c-0.2-0.1-0.4-0.2-0.6-0.3c-0.2-0.1-0.3-0.2-0.5-0.4c-0.1-0.1-0.3-0.3-0.3-0.5
						c-0.1-0.2-0.1-0.5-0.1-0.7c0-0.3,0-0.5,0.1-0.7c0.1-0.2,0.2-0.4,0.4-0.6c0.2-0.2,0.4-0.3,0.6-0.4c0.2-0.1,0.5-0.2,0.8-0.2
						l0.1-1.1c0,0,0-0.1,0-0.1c0,0,0,0,0.1-0.1s0.1,0,0.1,0c0.1,0,0.1,0,0.2,0c0.1,0,0.2,0,0.3,0c0.1,0,0.1,0,0.2,0
						c0,0,0.1,0,0.1,0.1c0,0,0,0.1,0,0.1l-0.1,1c0.1,0,0.2,0,0.3,0.1c0.1,0,0.2,0.1,0.3,0.1c0.1,0,0.2,0.1,0.3,0.1
						c0.1,0,0.1,0.1,0.2,0.1c0,0,0.1,0.1,0.1,0.1c0,0,0,0.1,0,0.1c0,0,0,0.1,0,0.2c0,0.1,0,0.1,0,0.2c0,0.1,0,0.2,0,0.3
						c0,0.1,0,0.1,0,0.2c0,0,0,0.1,0,0.1c0,0,0,0-0.1,0c0,0-0.1,0-0.2-0.1c-0.1,0-0.2-0.1-0.3-0.1c-0.1-0.1-0.3-0.1-0.4-0.1
						c-0.2,0-0.4-0.1-0.6-0.1c-0.2,0-0.3,0-0.5,0.1c-0.1,0-0.2,0.1-0.3,0.1c-0.1,0.1-0.1,0.1-0.2,0.2c0,0.1-0.1,0.2-0.1,0.3
						c0,0.2,0,0.3,0.1,0.4c0.1,0.1,0.2,0.2,0.4,0.3c0.1,0.1,0.3,0.2,0.5,0.2s0.4,0.1,0.6,0.2c0.2,0.1,0.4,0.2,0.6,0.3
						c0.2,0.1,0.3,0.2,0.5,0.4c0.1,0.1,0.3,0.3,0.3,0.5C24.6,39.7,24.6,40,24.6,40.3z"></path>
    </g>
    <rect width="44.7" height="3.5" y="51.4" fill="#5dafd8"></rect>
  </g>
</svg>
