<svg xmlns="http://www.w3.org/2000/svg" viewBox="0 0 20 20" id="industry">
  <linearGradient id="a" x1="4.997" x2="6.003" y1="6.497" y2="6.497" gradientUnits="userSpaceOnUse">
    <stop offset="0" stop-color="#708afb"></stop>
    <stop offset="1" stop-color="#426de8"></stop>
  </linearGradient>
  <path fill="url(#a)" fill-rule="evenodd" d="M5.5 6c.7 0 .7 1 0 1s-.7-1 0-1z" clip-rule="evenodd"></path>
  <linearGradient id="b" x1="4.986" x2="12.984" y1="5.5" y2="5.5" gradientUnits="userSpaceOnUse">
    <stop offset="0" stop-color="#708afb"></stop>
    <stop offset="1" stop-color="#426de8"></stop>
  </linearGradient>
  <path fill="url(#b)" fill-rule="evenodd" d="M12.5 6H10c-.7 0-.8-1-.1-1h.6c.3 0 .5-.2.5-.5s-.2-.5-.5-.5h-5c-.3 0-.5.2-.5.5s.2.5.5.5H8c.6 0 .6 1 0 1h-.5c-.3 0-.5.2-.5.5s.2.5.5.5h5c.3 0 .5-.2.5-.5s-.2-.5-.5-.5z" clip-rule="evenodd"></path>
  <linearGradient id="c" x1="11.986" x2="13.975" y1="4.497" y2="4.497" gradientUnits="userSpaceOnUse">
    <stop offset="0" stop-color="#708afb"></stop>
    <stop offset="1" stop-color="#426de8"></stop>
  </linearGradient>
  <path fill="url(#c)" fill-rule="evenodd" d="M13.5 4h-1c-.3 0-.5.2-.5.5s.2.5.5.5h1c.3 0 .5-.2.5-.5s-.2-.5-.5-.5z" clip-rule="evenodd"></path>
  <linearGradient id="d" x1="4.017" x2="7.702" y1="12.5" y2="12.5" gradientUnits="userSpaceOnUse">
    <stop offset="0" stop-color="#708afb"></stop>
    <stop offset="1" stop-color="#426de8"></stop>
  </linearGradient>
  <path fill="url(#d)" d="M7.3 17H4.4c-.2 0-.4-.2-.4-.4l.7-8.3c0-.2.2-.3.4-.3h1.6c.1 0 .3.1.3.3l.7 8.3c0 .2-.2.4-.4.4z"></path>
  <linearGradient id="e" x1="4" x2="16" y1="13.368" y2="13.368" gradientUnits="userSpaceOnUse">
    <stop offset="0" stop-color="#ffc80b"></stop>
    <stop offset="1" stop-color="#e89318"></stop>
  </linearGradient>
  <path fill="url(#e)" d="m15.4 10-1.8 1.3c-.2.2-.6 0-.6-.3v-.8c0-.3-.4-.5-.6-.3l-1.8 1.3c-.2.2-.6 0-.6-.3V10c0-.3-.3-.5-.6-.3l-2 1.3H4.5c-.3 0-.5.2-.5.5v5c0 .3.2.5.5.5h11.1c.2 0 .4-.2.4-.4v-6.4c0-.3-.4-.4-.6-.2z"></path>
  <linearGradient id="f" x1="8.984" x2="9.984" y1="13.5" y2="13.5" gradientUnits="userSpaceOnUse">
    <stop offset="0" stop-color="#708afb"></stop>
    <stop offset="1" stop-color="#426de8"></stop>
  </linearGradient>
  <path fill="url(#f)" d="M9 13h1v1H9z"></path>
  <linearGradient id="g" x1="10.984" x2="11.984" y1="13.5" y2="13.5" gradientUnits="userSpaceOnUse">
    <stop offset="0" stop-color="#708afb"></stop>
    <stop offset="1" stop-color="#426de8"></stop>
  </linearGradient>
  <path fill="url(#g)" d="M11 13h1v1h-1z"></path>
  <linearGradient id="h" x1="12.984" x2="13.984" y1="13.5" y2="13.5" gradientUnits="userSpaceOnUse">
    <stop offset="0" stop-color="#708afb"></stop>
    <stop offset="1" stop-color="#426de8"></stop>
  </linearGradient>
  <path fill="url(#h)" d="M13 13h1v1h-1z"></path>
  <linearGradient id="i" x1="8.984" x2="9.984" y1="15.5" y2="15.5" gradientUnits="userSpaceOnUse">
    <stop offset="0" stop-color="#708afb"></stop>
    <stop offset="1" stop-color="#426de8"></stop>
  </linearGradient>
  <path fill="url(#i)" d="M9 15h1v1H9z"></path>
  <linearGradient id="j" x1="10.984" x2="11.984" y1="15.5" y2="15.5" gradientUnits="userSpaceOnUse">
    <stop offset="0" stop-color="#708afb"></stop>
    <stop offset="1" stop-color="#426de8"></stop>
  </linearGradient>
  <path fill="url(#j)" d="M11 15h1v1h-1z"></path>
  <linearGradient id="k" x1="12.984" x2="13.984" y1="15.5" y2="15.5" gradientUnits="userSpaceOnUse">
    <stop offset="0" stop-color="#708afb"></stop>
    <stop offset="1" stop-color="#426de8"></stop>
  </linearGradient>
  <path fill="url(#k)" d="M13 15h1v1h-1z"></path>
</svg>
