<svg xmlns="http://www.w3.org/2000/svg" viewBox="0 0 512 512" id="investor">
  <path fill="#918291" d="M408,502V417.25a60,60,0,0,0-39.41-56.35l-98.59-36a30,30,0,0,1-19.7-28.18V267.43H165.19v29.26a30,30,0,0,1-19.7,28.18l-98.58,36A60,60,0,0,0,7.5,417.25V502a10,10,0,0,0,10,10H398A10,10,0,0,0,408,502Z"></path>
  <path fill="#ffcebf" d="M270,324.87a30,30,0,0,1-19.7-28.18V267.43H165.19v29.26a30,30,0,0,1-19.7,28.18l62.25,29.83Z"></path>
  <path fill="#ffb09e" d="M250.27,296.69V267.43H165.19v29.26a29.3,29.3,0,0,1-.54,5.57c1.43,1.57,2.93,3.09,4.52,4.53l7.57,6.89a67.48,67.48,0,0,0,45.39,17.55h14.59a67.48,67.48,0,0,0,30.74-7.42A30,30,0,0,1,250.27,296.69Z"></path>
  <path fill="#ffcebf" d="M291.77,139.57v87.31a67.43,67.43,0,0,1-22.09,49.91l-7.57,6.89a67.48,67.48,0,0,1-45.39,17.55H202.13a67.48,67.48,0,0,1-45.39-17.55l-7.57-6.89a67.43,67.43,0,0,1-22.09-49.91V133.39Z"></path>
  <path fill="#554e56" d="M291.77,149.57a38.72,38.72,0,0,1-50.09-11.51c-4.23,2.21-59.73,30.18-105.59,1.75a87,87,0,0,1-31.49-34.7c-14.67-29.25-14.48-70.54,6.74-88.94,2.66-2.31,13.56-11.12,23.48-8,11.47,3.59,9.18,19.19,18.37,30.39,21.89,26.66,79.06-8,113.81,16.81,9.31,6.65,20.86,20.33,24.39,52.17Q291.58,128.55,291.77,149.57Z"></path>
  <path fill="#685e68" d="M133.84,400.47l-22.51-9.3c-5-2.08-6.9-7.76-4-12.06L134,339.76l19.49,44.34Z"></path>
  <path fill="#685e68" d="M207,476.57,153.49,384.1l-41.07,34.23a7.89,7.89,0,0,0-1.71,10.49l79.64,75.68Z"></path>
  <path fill="#e8edf2" d="M207.74,354.7l-30.43,26.58c-8.7,7.61-23,4.75-27.48-5.49l-15.83-36,9.77-13.4a10,10,0,0,1,13.3-2.64Z"></path>
  <path fill="#685e68" d="M281.64,400.47l22.5-9.3c5-2.08,6.9-7.76,4-12.06l-26.65-39.35L262,384.1l8,6.66Z"></path>
  <path fill="#685e68" d="M185.89,512,262,384.1l41.11,34.25a7.91,7.91,0,0,1,1.73,10.46L218.45,512Z"></path>
  <path fill="#e8edf2" d="M207.73,354.7l30.44,26.58c8.7,7.61,23,4.75,27.47-5.49l15.84-36-9.78-13.4a10,10,0,0,0-13.29-2.64Z"></path>
  <path fill="#fff" d="M265.64,375.79,262,384.1h0l-55,92.47L153.49,384.1l-3.53-8c4.64,10,18.73,12.74,27.35,5.2l30.42-26.58h0l30.43,26.58C246.87,388.89,261.14,386,265.64,375.79Z"></path>
  <path fill="#fedf30" d="M430,504.5a74.46,74.46,0,1,0-52.65-21.81A74,74,0,0,0,430,504.5Z"></path>
  <path fill="#fed402" d="M482.69,377.39a74.55,74.55,0,0,0-10.95-9.05,74.47,74.47,0,0,1-103.4,103.4,74.46,74.46,0,1,0,114.35-94.35Z"></path>
  <path d="M75.57,463.76a7.5,7.5,0,0,0-7.5,7.5V504.5a7.5,7.5,0,0,0,15,0V471.26A7.5,7.5,0,0,0,75.57,463.76Zm264.33,0a7.5,7.5,0,0,0-7.5,7.5V504.5a7.5,7.5,0,0,0,15,0V471.26A7.5,7.5,0,0,0,339.9,463.76Zm51.76-132.42a7.5,7.5,0,1,0,13.44-6.67l-6.16-12.42a7.5,7.5,0,0,0-13.44,6.67Zm66.71,3.39a7.5,7.5,0,0,0,10.05-3.39l6.16-12.42a7.5,7.5,0,1,0-13.44-6.67L455,324.67A7.51,7.51,0,0,0,458.37,334.73ZM430,330.43a7.5,7.5,0,0,0,7.5-7.5V292.68a7.5,7.5,0,0,0-15,0v30.25A7.5,7.5,0,0,0,430,330.43ZM174.63,239a7.5,7.5,0,0,0,0,10.61l.18.18a37.93,37.93,0,0,0,27,11.18h15.43a37.93,37.93,0,0,0,27-11.18,7.5,7.5,0,1,0-10.61-10.61,23,23,0,0,1-16.38,6.79H201.8a23,23,0,0,1-16.38-6.79l-.18-.18A7.5,7.5,0,0,0,174.63,239Zm68.26-49a7.5,7.5,0,1,0-7.5-7.5A7.5,7.5,0,0,0,242.89,189.91ZM465,390.44a7.5,7.5,0,0,0-7.5-7.5H402.66a7.5,7.5,0,0,0,0,15h18.92a15.62,15.62,0,0,1,13.53,7.87H402.66a7.5,7.5,0,0,0,0,15h32.86a15.62,15.62,0,0,1-13.94,8.62H403.09a7.5,7.5,0,0,0-6,12.84l41.6,40.41a7.5,7.5,0,0,0,10.45-10.76l-28.29-27.49h.71a30.73,30.73,0,0,0,29.82-23.62h6.14a7.5,7.5,0,0,0,0-15h-6.33a30.6,30.6,0,0,0-3.31-7.87h9.64A7.5,7.5,0,0,0,465,390.44ZM488,372.08a82,82,0,0,0-102.44-10.89,67.47,67.47,0,0,0-14.42-7.33l-96.69-35.34a17.63,17.63,0,0,0-6.85-3.26,22.57,22.57,0,0,1-9.82-18.57v-.21a75.76,75.76,0,0,0,9.38-7.25l7.58-6.89a75.11,75.11,0,0,0,24.54-55.46V149.57s0,0,0,0v0l-.38-42a6.61,6.61,0,0,0-.05-.76c-3-27.23-12.26-46.56-27.47-57.44-19.63-14-44.6-11.42-66.62-9.12-20,2.1-37.34,3.91-45.76-6.35-3-3.65-4.5-8.14-6.08-12.9C150.43,13.47,147.35,4.22,137.06,1c-13-4.09-25.77,5.28-30.64,9.5C95,20.45,88.06,36.67,87,56.17a107.43,107.43,0,0,0,10.87,52.3,96.77,96.77,0,0,0,21.69,28.3v90.11a75.11,75.11,0,0,0,24.54,55.46l7.58,6.89a73,73,0,0,0,6,4.89v2.57a22.59,22.59,0,0,1-9.83,18.58,17.49,17.49,0,0,0-6.81,3.24L44.34,353.86A67.71,67.71,0,0,0,0,417.25V504.5a7.5,7.5,0,0,0,15,0V417.25a52.69,52.69,0,0,1,34.48-49.31l74.91-27.37-23.25,34.34a15.27,15.27,0,0,0-2,13,16,16,0,0,0,9.35,10.18l11,4.56-11.89,9.9a15.34,15.34,0,0,0-3.19,20.34,7.36,7.36,0,0,0,1.13,1.36l79.64,75.68,0,0a3,3,0,0,0,.33.28l.25.22.27.18.37.25.07.05.1.05c.23.13.47.25.71.36l.17.07a6.61,6.61,0,0,0,.85.3l.19,0c.22.06.45.1.67.14l.28,0c.26,0,.53,0,.79.05h.11a7.37,7.37,0,0,0,.82-.05l.26,0,.63-.12.25-.07a5.82,5.82,0,0,0,.67-.22,1,1,0,0,0,.16-.06,6.48,6.48,0,0,0,.8-.38.57.57,0,0,0,.13-.08,4.67,4.67,0,0,0,.6-.38l.27-.21.41-.35a3.45,3.45,0,0,0,.28-.26l.12-.11.3-.35c0-.07.11-.13.16-.19.19-.25.36-.5.52-.76l0,0,16.56-27.83v0l50.57-85,34.35,28.62a.84.84,0,0,1,.26.32l-77.66,74.66a7.5,7.5,0,1,0,10.4,10.82L310,434.21a7.6,7.6,0,0,0,1.11-1.35,15.34,15.34,0,0,0-3.24-20.27L296,402.66l11-4.56a16,16,0,0,0,9.35-10.18,15.27,15.27,0,0,0-2-13l-23.25-34.34L366,367.94a53.8,53.8,0,0,1,7.08,3.21c-.32.32-.66.61-1,.93a82,82,0,1,0,115.91,0ZM111.3,101.75c-12.76-25.45-13.82-63.63,5-79.92,4.91-4.25,11.86-7.92,16.33-6.52,2.7.85,3.87,3.65,6.1,10.32,1.76,5.3,3.95,11.88,8.71,17.68C161,59.81,184,57.4,206.31,55.06c20.32-2.13,41.34-4.33,56.33,6.4,11.54,8.25,18.69,23.9,21.25,46.52l.33,36.79a31.47,31.47,0,0,1-18.43,1.14,32,32,0,0,1-18-12.21,7.49,7.49,0,0,0-6.1-3.14,7.41,7.41,0,0,0-3.47.85,133.78,133.78,0,0,1-35.07,11.64c-24.34,4.49-45.56,1.25-63.1-9.61A80.12,80.12,0,0,1,111.3,101.75Zm42.91,169.5a60.11,60.11,0,0,1-19.63-44.37V147.61c20.08,11.56,44.64,15.1,71.28,10.19a153.12,153.12,0,0,0,33.82-10.47,46.62,46.62,0,0,0,22.55,13.15,45.31,45.31,0,0,0,10.8,1.31,47,47,0,0,0,11.24-1.39v66.48a60.11,60.11,0,0,1-19.63,44.37l-7.58,6.88a59.83,59.83,0,0,1-40.34,15.6H202.13a59.83,59.83,0,0,1-40.34-15.6Zm96.46,48.41-42.93,26.25L164.8,319.66a37.7,37.7,0,0,0,7.43-17.15,74.83,74.83,0,0,0,29.9,6.22h14.59a74.9,74.9,0,0,0,26.74-4.93A37.5,37.5,0,0,0,250.67,319.66Zm-101.3,11.75c1.12-.46,2.2-1,3.25-1.52a2.14,2.14,0,0,1,.54.23l42,25.65-22.74,19.87a10.42,10.42,0,0,1-9.15,2.18,9.05,9.05,0,0,1-6.53-5.05l-14.1-32.08ZM114.2,384.24a1.13,1.13,0,0,1-.72-.63c0-.07,0-.13.08-.29l19-28.12L143,378.81a22.9,22.9,0,0,0,1.58,3l-12,10Zm74.51,108.35L117,424.41a.75.75,0,0,1,.26-.32l34.24-28.53,46.81,81Zm18.35-30.84L167.31,393a25.2,25.2,0,0,0,14.94-6.08l25.49-22.26,25.49,22.26A25.18,25.18,0,0,0,248,393Zm51.72-89a9,9,0,0,1-6.53,5.05,10.45,10.45,0,0,1-9.15-2.18l-22.74-19.87,42-25.65a2.66,2.66,0,0,1,.52-.23q1.59.84,3.27,1.53l6.77,9.27Zm43.14,10.55a.32.32,0,0,1,.08.29,1.13,1.13,0,0,1-.72.63L283,391.81l-12-10a23,23,0,0,0,1.59-3l10.37-23.61Zm175.47,94.07a67,67,0,0,1-94.7-94.7,68.52,68.52,0,0,1,6.44-5.65,7.57,7.57,0,0,0,1.74-1.31,67,67,0,0,1,86.52,101.66ZM176,189.91a7.5,7.5,0,1,0-7.5-7.5A7.5,7.5,0,0,0,176,189.91Z"></path>
</svg>
