<svg xmlns="http://www.w3.org/2000/svg" xmlns:xlink="http://www.w3.org/1999/xlink" viewBox="0 0 512 512" id="mortgage">
  <defs>
    <linearGradient id="a" x1="118.21" x2="384.33" y1="248.21" y2="248.21" gradientUnits="userSpaceOnUse">
      <stop offset="0" stop-color="#cacfdd"></stop>
      <stop offset="1" stop-color="#eef0f1"></stop>
    </linearGradient>
    <linearGradient xlink:href="#a" id="b" x1="462.17" x2="333.14" y1="338.34" y2="338.34"></linearGradient>
    <linearGradient xlink:href="#a" id="c" x1="336.8" x2="420.07" y1="335.74" y2="335.74"></linearGradient>
    <linearGradient xlink:href="#a" id="d" x1="377.63" x2="330.8" y1="324.55" y2="324.55"></linearGradient>
  </defs>
  <g style="isolation:isolate">
    <g>
      <rect width="266.13" height="363.47" x="130.56" y="36" fill="#f5f5f5"></rect>
      <rect width="266.12" height="363.47" x="130.56" y="36" fill="#f5f5f5"></rect>
      <path fill="#5e6175" d="M399.68,402.47H127.56V33H399.68Zm-266.12-6H393.68V39H133.56Z"></path>
      <rect width="266.12" height="363.47" x="118.21" y="66.48" fill="url(#a)" style="mix-blend-mode:multiply"></rect>
      <rect width="266.13" height="363.47" x="99.31" y="66.48" fill="#f5f5f5"></rect>
      <rect width="266.12" height="363.47" x="99.31" y="66.48" fill="#f5f5f5"></rect>
      <path fill="#5e6175" d="M368.43,432.94H96.31V63.48H368.43Zm-266.12-6H362.43V69.48H102.31Z"></path>
      <path fill="#e1830e" d="M176.67,206.75l-43.95,42.33h17.71v38.65h16.78V266.56h18.92v21.17h16.79V249.08h17.7Z"></path>
      <path fill="url(#b)" d="M393.24,258.74V402.91H365.43v27H285.49a79.28,79.28,0,0,1,15.83-69.74l8.12-9.8c-17.8-9.59-17.5-34.87-.12-44.23a88.4,88.4,0,0,1,17.8-7.17L308,246.75c56.25,0,53.84-.15,57.45.37a37,37,0,0,1,23.17,13A35.85,35.85,0,0,1,393.24,258.74Z" style="mix-blend-mode:multiply"></path>
      <rect width="134.97" height="12.64" x="132.72" y="170.99" fill="#dee1ec"></rect>
      <rect width="88.43" height="12.64" x="240.9" y="205.73" fill="#dee1ec"></rect>
      <rect width="42.2" height="12.64" x="287.14" y="170.99" fill="#dee1ec"></rect>
      <rect width="71.75" height="12.64" x="240.9" y="240.47" fill="#dee1ec"></rect>
      <rect width="71.75" height="12.64" x="240.9" y="275.2" fill="#dee1ec"></rect>
      <rect width="154.82" height="12.64" x="132.72" y="312.22" fill="#dee1ec"></rect>
      <rect width="52.42" height="12.64" x="132.72" y="344.96" fill="#dee1ec"></rect>
      <rect width="28.02" height="12.64" x="200.19" y="344.96" fill="#dee1ec"></rect>
      <rect width="132.8" height="12.64" x="132.72" y="377.69" fill="#dee1ec"></rect>
      <rect width="196.61" height="36.32" x="132.72" y="101.94" fill="#a9afc4"></rect>
      <path fill="#dee1ec" d="M457.61,410.68A62.62,62.62,0,0,1,395,473.31H362.23A62.63,62.63,0,0,1,314,370.73L348.63,329h59.95l34.62,41.77A62.6,62.6,0,0,1,457.61,410.68Z"></path>
      <polygon fill="url(#c)" points="419.81 342.51 408.58 328.96 348.63 328.96 337.4 342.51 419.81 342.51" style="mix-blend-mode:multiply"></polygon>
      <path fill="#dee1ec" d="M349.51,312.22l-17.94-49H360.2a20.48,20.48,0,0,1,20.48,20.48v11.13a20.48,20.48,0,0,1,20.48-20.48h19.52l-14.62,37.85Z"></path>
      <rect width="72.55" height="16.74" x="342.33" y="312.22" fill="#a9afc4" rx="8.13"></rect>
      <path fill="#5e6175" d="M406.76,332h-56.3c-5.7,0-11.13-4.38-11.13-11.62a11.14,11.14,0,0,1,11.13-11.12h56.3a11.37,11.37,0,0,1,0,22.74Zm-56.3-16.74a5.13,5.13,0,0,0-5.13,5.12v.49a5.13,5.13,0,0,0,5.13,5.13h56.3a5.13,5.13,0,0,0,5.12-5.13v-.49a5.13,5.13,0,0,0-5.12-5.12Z"></path>
      <path fill="#a9afc4" d="M352.61,329a57.41,57.41,0,0,0-27.27,6.89,8.62,8.62,0,0,1-8.2-15.17,71.33,71.33,0,0,1,33.48-8.46,8.29,8.29,0,0,0-5.83,2.45A8.38,8.38,0,0,0,350.7,329Z"></path>
      <path fill="url(#d)" d="M352.61,329a57.41,57.41,0,0,0-27.27,6.89,8.62,8.62,0,0,1-8.2-15.17,71.33,71.33,0,0,1,33.48-8.46,8.29,8.29,0,0,0-5.83,2.45A8.38,8.38,0,0,0,350.7,329Z" style="mix-blend-mode:multiply"></path>
      <path fill="#5e6175" d="M309.65,328.24a11.58,11.58,0,0,1,6.07-10.2,74.53,74.53,0,0,1,34.89-8.82l0,6a5.32,5.32,0,0,0-3.74,1.57A5.38,5.38,0,0,0,350.7,326h1.91v6a54.65,54.65,0,0,0-25.85,6.53A11.64,11.64,0,0,1,309.65,328.24Zm30.62-12.19a68.71,68.71,0,0,0-21.71,7.28,5.56,5.56,0,0,0-2.91,4.91,5.63,5.63,0,0,0,8.26,5A60.24,60.24,0,0,1,341.34,327,11.38,11.38,0,0,1,340.27,316.05Z"></path>
      <path fill="#5e6175" d="M395 476.31H362.23a65.62 65.62 0 01-50.52-107.5L347.22 326H410l35.52 42.85A65.63 65.63 0 01395 476.31zM350 332l-33.71 40.68a59.62 59.62 0 0045.9 97.67H395a59.63 59.63 0 0045.91-97.67L407.17 332zM408.12 315.22h-60.7l-20.14-55H360.2a23.52 23.52 0 0123.12 19.36 23.43 23.43 0 0117.85-8.23h23.88zm-56.51-6H404l12.3-31.85H401.17a17.5 17.5 0 00-17.49 17.48h-6V283.72a17.5 17.5 0 00-17.48-17.48H335.87z"></path>
      <path fill="#e1830e" d="M377.58,433.68a19.32,19.32,0,0,1-19.3-19.3h12.09a7.21,7.21,0,1,0,7.21-7.2,19.3,19.3,0,1,1,19.29-19.3H384.78a7.21,7.21,0,1,0-7.2,7.21,19.3,19.3,0,0,1,0,38.59Z"></path>
      <rect width="12.09" height="12.06" x="371.53" y="362.57" fill="#e1830e"></rect>
      <rect width="12.09" height="12.06" x="371.53" y="427.64" fill="#e1830e"></rect>
      <rect width="20.8" height="6" x="440.14" y="272.52" fill="#5e6175"></rect>
      <rect width="20.8" height="6" x="432.67" y="245.33" fill="#5e6175" transform="rotate(-45 443.07 248.325)"></rect>
      <rect width="6" height="20.8" x="441.36" y="291.81" fill="#5e6175" transform="rotate(-45 444.368 302.207)"></rect>
      <path fill="#a9afc4" d="M78.8,185h-6v-6h6Zm0-16h-6v-6h6Zm0-16h-6v-6h6Zm0-16h-6v-6h6Zm0-16h-6v-6h6Zm0-16h-6V99h6Zm0-16h-6V83h6Zm0-16h-6c0-3.67,0-4.71.09-6.24l6,.48C78.77,68.51,78.8,69.24,78.8,73Zm2.39-14.28-5.4-2.62a29.2,29.2,0,0,1,3.57-5.62L84,54.19A23.55,23.55,0,0,0,81.19,58.67Zm9.55-10.23-3-5.2a29.8,29.8,0,0,1,6.11-2.65l1.76,5.74A23.45,23.45,0,0,0,90.74,48.44Zm19.88-3.15h-6v-6h6Z"></path>
      <path fill="#e1830e" d="M441.65,175a16,16,0,0,1-16,16,16,16,0,0,1,16,16,15.94,15.94,0,0,1,16-16,16,16,0,0,1-16-16"></path>
      <path fill="#5e6175" d="M60.77 442.17a12.7 12.7 0 01-3.45-24.92h0c10.92-3.06 20 8.67 14.51 18.44A12.67 12.67 0 0160.77 442.17zM59 423a6.7 6.7 0 107.65 9.73A6.69 6.69 0 0059 423zM99.75 471.9A9.73 9.73 0 11117.6 474 9.74 9.74 0 0199.75 471.9zm9.37-6.37a3.74 3.74 0 103.59 2.73A3.73 3.73 0 00109.12 465.53z"></path>
    </g>
  </g>
</svg>
