<svg xmlns="http://www.w3.org/2000/svg" viewBox="0 0 512 512" id="personal-loan">
  <path fill="#57565c" d="M303.76,293.7l-95.4-6.1-9-41.31c-5.74-26.51,12.74-52.14,37.82-52h.59c9.19.11,15.42,1.81,25.48,4,5.13,1.13,11.06,2.35,17.76,3.56,22.22,4,36.69,27.61,31.53,51.43C310.12,264.74,306.24,282.27,303.76,293.7Z"></path>
  <path fill="#3c3b41" d="M281.06,201.88c-6.7-1.21-12.63-2.43-17.76-3.56-10.06-2.21-16.29-3.91-25.48-4h-.59a35.74,35.74,0,0,0-6.42.55c5.49.69,10.58,2,17.49,3.48,5.13,1.13,11.06,2.35,17.76,3.56,22.22,4,36.69,27.61,31.53,51.43q-3.7,17.15-7.42,34.29l13.59,6.1c2.48-11.43,6.36-29,8.83-40.39C317.75,229.49,303.28,205.92,281.06,201.88Z"></path>
  <path fill="#eb304a" d="M391.28,450.09V512H120.72V450.07a49.12,49.12,0,0,1,34.78-47L178.7,396l.68-.21h0l26.31-8a24.54,24.54,0,0,0,17.38-23.47L226,340.86c1.53-4.6,6.14-16.41,18.22-24.63,5-3.43,17.51-11.93,29.1-6.9,10.1,4.38,16.24,17.58,14.38,32.3.28,9.23.49,16.66.59,22.51a25.22,25.22,0,0,0,.72,5.91,24.55,24.55,0,0,0,5.11,10l.36.41a24.52,24.52,0,0,0,11.2,7.19l26.34,8,.81.25,23.69,7.21A49.12,49.12,0,0,1,391.28,450.09Z"></path>
  <path fill="#e4222e" d="M356.48,403.11l-23.69-7.21-.81-.25-26.34-8a24.52,24.52,0,0,1-11.2-7.19l-.36-.41a24.55,24.55,0,0,1-5.11-10,25.22,25.22,0,0,1-.72-5.91c-.1-5.85-.31-13.28-.59-22.51,1.86-14.72-4.28-27.92-14.38-32.3-5.26-2.28-10.71-1.77-15.56-.22l.56.22c10.1,4.38,16.24,17.58,14.38,32.3.28,9.23.49,16.66.59,22.51a25.22,25.22,0,0,0,.72,5.91,24.55,24.55,0,0,0,5.11,10l.36.41a24.52,24.52,0,0,0,11.2,7.19l26.34,8,.81.25,23.69,7.21a49.12,49.12,0,0,1,34.8,47V512h15V450.09A49.12,49.12,0,0,0,356.48,403.11Z"></path>
  <path fill="#fdd8ae" d="M294.08,380l-38.39,25-38.4-24.82a24.49,24.49,0,0,0,5.79-15.83l1-8.07L226,340.86c1.53-4.6,6.14-16.41,18.22-24.63,5-3.43,17.51-11.93,29.1-6.9,10.1,4.38,16.24,17.58,14.38,32.3.16,5.44.31,10.25.41,14.48.08,3,.14,5.63.18,8a25.22,25.22,0,0,0,.72,5.91A24.55,24.55,0,0,0,294.08,380Z"></path>
  <path fill="#fbbf7d" d="M288.07,356.11c-8.46,11-19.71,18.9-32.05,18.9s-23.49-7.86-31.95-18.76L226,340.86c1.53-4.6,6.14-16.41,18.22-24.63,5-3.43,17.51-11.93,29.1-6.9,10.1,4.38,16.24,17.58,14.38,32.3C287.82,347.07,288,351.88,288.07,356.11Z"></path>
  <path fill="#fdd8ae" d="M303.67,299.25C303.67,324,282.33,360,256,360S208.37,324,208.37,299.25V281.53c-.7-9.42,1.44-15.43,5.54-18.88,8-6.71,18.81,0,28.57-6.88,9.56-6.78,17.46-9.09,27.44-2.14,10.64,7.4,20.53,1.87,28.2,9,3,2.82,6.23,8.1,5.55,18.88Z"></path>
  <path fill="#fbbf7d" d="M298.12,262.65c-7.67-7.15-17.56-1.62-28.2-9-7.07-4.92-13.09-5.18-19.4-2.52a27.13,27.13,0,0,1,4.4,2.52c10.64,7.4,20.53,1.87,28.2,9,3,2.82,6.23,8.1,5.55,18.88v17.72c0,22.31-17.4,53.87-40.15,59.78a29.51,29.51,0,0,0,7.5,1c26.31,0,47.65-36.05,47.65-60.76V281.53C304.35,270.75,301.16,265.47,298.12,262.65Z"></path>
  <path fill="#c0232c" d="M255.15 403.83l-34.27 27.58a8.77 8.77 0 0 1-12.1-1.06L178.7 396l.68-.21h0l26.31-8a24.31 24.31 0 0 0 11.59-7.64zM332.79 395.9l-30.43 34.46a8.76 8.76 0 0 1-12.09 1.05L256 403.83l38.44-23.4a24.52 24.52 0 0 0 11.2 7.19l26.34 8z"></path>
  <path fill="#fed947" d="M429.25,331.25a75.25,75.25,0,1,1,53.21-22A74.76,74.76,0,0,1,429.25,331.25Z"></path>
  <path fill="#fecc30" d="M482.46,202.79a74.76,74.76,0,0,0-53.21-22,76.31,76.31,0,0,0-12.5,1.05,75.24,75.24,0,0,1,0,148.4,76.31,76.31,0,0,0,12.5,1.05,75.25,75.25,0,0,0,53.21-128.46Z"></path>
  <path fill="#fed947" d="M256,158A75.24,75.24,0,0,1,202.79,29.54,75.25,75.25,0,1,1,309.21,136,74.74,74.74,0,0,1,256,158Z"></path>
  <path fill="#fecc30" d="M309.21,29.54A74.78,74.78,0,0,0,256,7.5a76.22,76.22,0,0,0-12.5,1.05A75.24,75.24,0,0,1,284.21,136a74.69,74.69,0,0,1-40.71,21A76.22,76.22,0,0,0,256,158,75.24,75.24,0,0,0,309.21,29.54Z"></path>
  <path fill="#fed947" d="M82.75,331.25a75.25,75.25,0,1,1,53.2-22A74.76,74.76,0,0,1,82.75,331.25Z"></path>
  <path fill="#fecc30" d="M136,202.79a74.76,74.76,0,0,0-53.2-22,76.12,76.12,0,0,0-12.5,1.05,75.25,75.25,0,0,1,0,148.4,76.12,76.12,0,0,0,12.5,1.05A75.25,75.25,0,0,0,136,202.79Z"></path>
  <path fill="#3c3b41" d="M170.41,103.54a7.44,7.44,0,0,0,3.52-.88l.14-.08a7.46,7.46,0,0,0,1.37-1,82.75,82.75,0,0,0,161.27-.7,7.64,7.64,0,0,0,6.35,3.45,7.5,7.5,0,0,0,3.75-14l-.3-.17a7.48,7.48,0,0,0-8.17.74c.27-2.73.4-5.49.4-8.26a82.75,82.75,0,0,0-165.49,0c0,2.17.11,4.32.27,6.46a7.51,7.51,0,0,0-6.61.26L170.4,96l-3.53-6.62a7.5,7.5,0,0,0,3.54,14.12Zm37.68-68.77a67.75,67.75,0,0,1,95.81,95.81,67.75,67.75,0,0,1-95.81-95.81ZM123.19,140a7.51,7.51,0,1,0-5.41-12.66l-.12.14A7.48,7.48,0,0,0,123.19,140Zm22.1-20.13a7.53,7.53,0,1,0-4.45-13.55l-.16.13a7.5,7.5,0,0,0,4.61,13.42Zm218-.62.13.1a7.5,7.5,0,0,0,9.21-11.84L368,113.32l4.65-5.88a7.5,7.5,0,0,0-9.31,11.76Zm45,45.75a7.49,7.49,0,0,0,6.32-11.53l-.12-.19a7.5,7.5,0,1,0-6.2,11.72ZM390,141.26a7.51,7.51,0,0,0,5.58-12.52l-.13-.13a7.46,7.46,0,0,0-10.53-.44A7.54,7.54,0,0,0,390,141.26Zm-16.59,261.5a7.5,7.5,0,0,0-11.42-9,7.42,7.42,0,0,0-2.13,2.52l-1.18-.38-50.82-15.49a17.05,17.05,0,0,1-11.59-12.2,17.42,17.42,0,0,1-.5-4.24c-.09-5.25-.27-11.79-.51-19.84,10-13.71,15.92-31,15.92-44.92V292a7.44,7.44,0,0,0,1.34-2.92l7.42-34.28a52.75,52.75,0,0,0-7.49-40.28,45.93,45.93,0,0,0-30-20.12c-5.88-1.06-11.6-2.21-17.48-3.51l-3.83-.85c-8-1.8-14.38-3.22-23.06-3.34h-1a44.74,44.74,0,0,0-34.71,17,52.82,52.82,0,0,0-10.24,44.12l8.78,40.56v10.81c0,13.85,5.89,30.71,15.35,44,.54.75,1.08,1.47,1.63,2.18l-2.21,18c0,.3,0,.61,0,.91a17.07,17.07,0,0,1-4.05,11,16.79,16.79,0,0,1-8,5.28l-26.12,8a1.17,1.17,0,0,0-.2.06l-23.88,7.29c-.73.22-1.45.46-2.17.7a7.43,7.43,0,0,0-2.6-4l-.13-.11A7.5,7.5,0,0,0,138,403.13,56.26,56.26,0,0,0,113.22,450v54.43a7.5,7.5,0,0,0,15,0V450a41.38,41.38,0,0,1,29.47-39.8l18.59-5.68,26.86,30.7a16.23,16.23,0,0,0,22.44,2l22.92-18.44v85.69a7.5,7.5,0,1,0,15,0v-85l22.07,17.77A16.25,16.25,0,0,0,308,435.24l27.08-30.88,19.21,5.85A41.4,41.4,0,0,1,383.78,450v54.41a7.5,7.5,0,1,0,15,0V450A56.25,56.25,0,0,0,373.39,402.76Zm-231.22-2.17h0l1.74-2.17Zm64.57-156A37.68,37.68,0,0,1,214,213.14c6-7.41,14.26-11.44,23.26-11.42h.5c7.17.09,12.3,1.24,20.07,3l3.88.86c6.08,1.34,12,2.52,18,3.62A31.07,31.07,0,0,1,300,222.88a37.72,37.72,0,0,1,5.3,28.78l-1.33,6.13c-.23-.24-.46-.48-.7-.7-5.72-5.32-12.21-5.92-17.42-6.39-4.25-.4-7.92-.73-11.61-3.3-6.36-4.42-12.61-6.18-19.1-5.36-5.32.67-10.55,3-17,7.55-2.84,2-5.93,2.11-10.75,2.13-5.39,0-12.08.05-18,4.92Zm9.12,54.55V281.46a5.24,5.24,0,0,0,0-.56c-.32-4.36-.08-10.08,2.9-12.58,1.79-1.51,4.34-1.59,8.7-1.6,5.58,0,12.52,0,19.37-4.9,4.73-3.35,8.13-5,11.31-5,2.47,0,4.8,1,7.52,2.85,6.94,4.83,13.51,5.44,18.8,5.92,4.46.41,6.69.69,8.57,2.44,2.5,2.33,3.57,6.67,3.17,12.91,0,.16,0,.32,0,.48v17.72c0,20.54-18.37,53.26-40.15,53.26-9.1,0-17.61-5.73-24.43-13.89l0-.05C222.07,327.14,215.86,311.11,215.86,299.18Zm.32,126.31a1.26,1.26,0,0,1-1.75-.15L192,399.73l15.86-4.84a32,32,0,0,0,9.75-4.91l24.44,14.67Zm39.39-30.23-28.25-17a32,32,0,0,0,3.25-13.56l.73-6c7.76,5.65,16.17,8.66,24.71,8.66,9,0,17.34-3.24,24.63-8.5,0,1.88.08,3.64.11,5.26a31.7,31.7,0,0,0,3.28,14Zm41.15,30.09a1.27,1.27,0,0,1-1.75.15l-25.9-20.85,24.68-14.82a32.21,32.21,0,0,0,9.7,4.89l15.88,4.84ZM100.46,162.25a7.5,7.5,0,0,0,10.41-2l.18-.26a7.5,7.5,0,1,0-10.59,2.26ZM247.74,82.07h-18.5a7.5,7.5,0,0,0-6,12.84l41.6,40.41a7.5,7.5,0,0,0,10.45-10.76L247,97.07h.72a30.72,30.72,0,0,0,29.81-23.63h6.14a7.5,7.5,0,0,0,0-15h-6.32a30.56,30.56,0,0,0-3.32-7.86h9.64a7.5,7.5,0,0,0,0-15H228.82a7.5,7.5,0,0,0,0,15h18.92a15.64,15.64,0,0,1,13.53,7.86H228.82a7.5,7.5,0,0,0,0,15h32.86A15.65,15.65,0,0,1,247.74,82.07ZM99.66,347.88a7.51,7.51,0,0,0-2.42,10.33l.17.26a7.5,7.5,0,1,0,2.25-10.59Zm311.77,1.89a7.48,7.48,0,0,0-10.41,2c0,.06-.14.2-.17.26a7.5,7.5,0,1,0,10.58-2.25Zm-3.25,6.85-1-.65,1,.71Zm56.27-140.29a7.5,7.5,0,0,0-7.5-7.5H402.07a7.5,7.5,0,0,0,0,15H421a15.62,15.62,0,0,1,13.53,7.87H402.07a7.5,7.5,0,0,0,0,15h32.86A15.63,15.63,0,0,1,421,255.32h-18.5a7.5,7.5,0,0,0-6,12.84l41.6,40.41a7.5,7.5,0,1,0,10.45-10.76l-28.29-27.49H421a30.73,30.73,0,0,0,29.82-23.62H457a7.5,7.5,0,0,0,0-15h-6.33a30.6,30.6,0,0,0-3.31-7.87H457A7.5,7.5,0,0,0,464.45,216.33ZM388.62,387.06a7.49,7.49,0,0,0,5.47-2.36l.12-.13a7.51,7.51,0,1,0-5.59,2.49ZM116.87,372.39a7.5,7.5,0,0,0-.56,10.59l.13.14a7.42,7.42,0,0,0,5.46,2.4,7.52,7.52,0,1,0-5-13.13Zm370.89-175A82.74,82.74,0,1,0,512,255.93,82.21,82.21,0,0,0,487.76,197.42ZM477.15,303.83A67.72,67.72,0,1,1,497,255.93,67.27,67.27,0,0,1,477.15,303.83Zm-359.21-87.5a7.5,7.5,0,0,0-7.5-7.5H55.57a7.5,7.5,0,0,0,0,15H74.48A15.62,15.62,0,0,1,88,231.7H55.57a7.5,7.5,0,1,0,0,15H88.43a15.65,15.65,0,0,1-14,8.62H56a7.49,7.49,0,0,0-6,12.84l41.59,40.41a7.5,7.5,0,1,0,10.45-10.76L73.77,270.32h.71A30.72,30.72,0,0,0,104.3,246.7h6.14a7.5,7.5,0,0,0,0-15h-6.33a30.6,30.6,0,0,0-3.31-7.87h9.64A7.5,7.5,0,0,0,117.94,216.33Zm47.55,39.6A82.75,82.75,0,0,0,24.23,197.42a82.75,82.75,0,1,0,117,117A82.21,82.21,0,0,0,165.49,255.93ZM82.74,323.68a67.76,67.76,0,1,1,47.91-19.85A67.28,67.28,0,0,1,82.74,323.68Z"></path>
</svg>
