<svg width="44" height="44" viewBox="0 0 44 44" fill="none" xmlns="http://www.w3.org/2000/svg">
<path fill-rule="evenodd" clip-rule="evenodd" d="M29.5713 5.95754C29.3769 6.03622 28.3699 7.81184 27.3333 9.90337L25.4484 13.7058L23.8602 13.1557C22.4913 12.6818 22.0697 12.6475 20.8049 12.9091C19.9978 13.0759 18.9298 13.5266 18.4318 13.9105C17.9336 14.2944 17.3967 14.6087 17.2384 14.6087C17.0802 14.6087 16.623 14.108 16.222 13.4959C15.3945 12.2321 15.2497 12.4862 17.8279 10.6828C20.0208 9.14883 19.8019 8.25648 17.2324 8.25648C13.5296 8.25648 11.2066 9.80115 10.1487 12.9671C8.99675 16.4138 9.51245 16.7809 12.458 14.6107L14.3295 13.2319L14.9362 13.9892C16.1696 15.5289 16.2482 15.8648 15.5945 16.7925C13.8903 19.2113 12.2948 24.1981 12.2986 27.0944C12.3027 30.2821 13.3495 33.4839 15.0127 35.3984C15.4989 35.9579 16.6992 36.8152 17.6801 37.3032C19.2367 38.0777 19.7461 38.1915 21.6876 38.1995C23.523 38.2072 24.1803 38.0826 25.4478 37.4878C27.5902 36.4822 29.0878 35.0148 30.1072 32.9219C30.8841 31.3269 30.9918 30.8099 31.1004 28.1478C31.2889 23.522 30.2127 19.7101 27.7334 16.2227L26.8034 14.9141L28.3882 11.2547C29.2597 9.2422 30.1739 7.46716 30.4196 7.31056C30.7584 7.09456 31.3061 7.24511 32.6882 7.93388C33.8939 8.53458 34.602 8.74918 34.7816 8.56774C35.277 8.06699 34.7499 7.45777 33.0874 6.60986C31.554 5.82745 30.4139 5.61588 29.5713 5.95754Z" fill="#092951"/>
</svg>
